# AST/ASF file generated using VICON BodyLanguage
# -----------------------------------------------
:version 1.10
:name VICON
:units
  mass 1.0
  length 0.45
  angle deg
:documentation
   .ast/.asf automatically generated from VICON data using
   VICON BodyBuilder and BodyLanguage model FoxedUp or BRILLIANT.MOD
:root
   order TX TY TZ RX RY RZ
   axis XYZ
   position 0 0 0  
   orientation 0 0 0 
:bonedata
  begin
     id 1 
     name lhipjoint
     direction 0.635376 -0.686425 0.353719 
     length 2.47244 
     axis 0 0 0  XYZ
  end
  begin
     id 2 
     name lfemur
     direction 0.34202 -0.939693 0  
     length 7.25268  
     axis 0 0 20  XYZ
    dof rx ry rz
    limits (-160.0 20.0)
           (-70.0 70.0)
           (-60.0 70.0)
  end
  begin
     id 3 
     name ltibia
     direction 0.34202 -0.939693 0   
     length 7.6767   
     axis 0 0 20   XYZ
    dof rx
    limits (-10.0 170.0)
  end
  begin
     id 4 
     name lfoot
     direction 0.0803374 -0.220725 0.972022   
     length 2.22945   
     axis -90 7.62852e-016 20   XYZ
    dof rx rz
    limits (-45.0 90.0)
           (-70.0 20.0)
  end
  begin
     id 5 
     name ltoes
     direction 1.53579e-011 -4.21994e-011 1   
     length 1.11848   
     axis -90 7.62852e-016 20   XYZ
    dof rx
    limits (-90.0 20.0)
  end
  begin
     id 6 
     name rhipjoint
     direction -0.664428 -0.664335 0.342336   
     length 2.55466  
     axis 0 0 0  XYZ 
  end
  begin
     id 7 
     name rfemur
     direction -0.34202 -0.939693 0   
     length 6.83172   
     axis 0 0 -20   XYZ
    dof rx ry rz
    limits (-160.0 20.0)
           (-70.0 70.0)
           (-70.0 60.0)
  end
  begin
     id 8 
     name rtibia
     direction -0.34202 -0.939693 0   
     length 7.62692   
     axis 0 0 -20   XYZ
    dof rx
    limits (-10.0 170.0)
 end
 begin
     id 9 
     name rfoot
     direction -0.0949276 -0.260811 0.960711   
     length 2.19684  
     axis -90 -7.62852e-016 -20   XYZ
    dof rx rz
    limits (-45.0 90.0)
           (-20.0 70.0)
  end
  begin
     id 10 
     name rtoes
     direction -1.53543e-011 -4.2183e-011 1   
     length 1.09848   
     axis -90 -7.62852e-016 -20   XYZ
    dof rx
    limits (-90.0 20.0)
  end
  begin
     id 11 
     name lowerback
     direction 0.0118782 0.999815 -0.0151555   
     length 2.15772   
     axis 0 0 0   XYZ
    dof rx ry rz
    limits (-20.0 45.0)
           (-30.0 30.0)
           (-30.0 30.0)
  end
  begin
     id 12 
     name upperback
     direction 0.00130825 0.999065 0.0432113   
     length 2.14863   
     axis 0 0 0   XYZ
    dof rx ry rz
    limits (-20.0 45.0)
           (-30.0 30.0)
           (-30.0 30.0)
  end
  begin
     id 13 
     name thorax
     direction -0.00347005 0.998773 0.0494011   
     length 2.14936   
     axis 0 0 0   XYZ
    dof rx ry rz
    limits (-20.0 45.0)
           (-30.0 30.0)
           (-30.0 30.0)
  end
  begin
     id 14 
     name lowerneck
     direction -0.0262159 0.99424 0.103921   
     length 1.69373   
     axis 0 0 0   XYZ
    dof rx ry rz
    limits (-20.0 45.0)
           (-30.0 30.0)
           (-30.0 30.0)
  end
  begin
     id 15 
     name upperneck
     direction 0.0353511 0.977394 -0.20845   
     length 1.70857   
     axis 0 0 0   XYZ
    dof rx ry rz
    limits (-20.0 45.0)
           (-30.0 30.0)
           (-30.0 30.0)
  end
  begin
     id 16
     name head
     direction 0.0139214 0.996594 -0.0812836  
     length 1.72777  
     axis 0 0 0   XYZ
    dof rx ry rz
    limits (-20.0 45.0)
           (-30.0 30.0)
           (-30.0 30.0)
  end
  begin
     id 17 
     name lclavicle
     direction 0.841247 0.537205 -0.0609508  
     length 3.55371  
     axis 0 0 0   XYZ
    dof ry rz
    limits (-20.0 10.0)
           (0.0 20.0)
  end
  begin
     id 18 
     name lhumerus
     direction 1 -4.48964e-011 1.60116e-018   
     length 4.91377   
     axis -180 -30 -90   XYZ
    dof rx ry rz
    limits (-60.0 90.0)
           (-90.0 90.0)
           (-90.0 90.0)
  end
  begin
     id 19
     name lradius
     direction 1 -4.48989e-011 -8.93847e-027   
     length 3.00291   
     axis -180 -30 -90   XYZ
    dof rx
    limits (-10.0 170.0)
  end
  begin
     id 20
     name lwrist
     direction 1 -4.48932e-011 -7.31504e-027   
     length 1.50145   
     axis 5.74121e-015 90 90   XYZ
    dof ry
    limits (-180.0 0.0)
 end
  begin
     id 21 
     name lhand
     direction 1 -4.48971e-011 -1.46301e-026   
     length 0.450922   
     axis 9.33524e-015 90 90   XYZ
    dof rx rz
    limits (-90.0 90.0)
           (-45.0 45.0)
  end
  begin
     id 22 
     name lfingers
     direction 1 -4.49039e-011 -2.92602e-026   
     length 0.363545   
     axis 1.86705e-014 90 90   XYZ
    dof rx
    limits (0.0 90.0)
  end
  begin
     id 23
     name lthumb
     direction 0.707107 -6.34941e-011 0.707107   
     length 0.52198   
     axis -90 45 2.85299e-015   XYZ
    dof rx rz
    limits (-45.0 45.0)
           (-45.0 45.0)
  end
  begin
     id 24 
     name rclavicle
     direction -0.825079 0.56158 -0.0622297   
     length 3.39909  
     axis 0 0 0   XYZ 
    dof ry rz
    limits (-10.0 20.0)
           (-20.0 0.0)
  end
  begin
     id 25 
     name rhumerus
     direction -1 -4.48965e-011 1.61691e-027  
     length 4.86725   
     axis -180 30 90   XYZ
    dof rx ry rz
    limits (-90.0 60.0)
           (-90.0 90.0)
           (-90.0 90.0)
  end
  begin
     id 26 
     name rradius
     direction -1 -4.48964e-011 -2.25776e-027   
     length 3.17144   
     axis -180 30 90   XYZ
    dof rx
    limits (-10.0 170.0)
  end
  begin
     id 27 
     name rwrist
     direction -1 -4.48961e-011 -7.31504e-027   
     length 1.58572   
     axis 5.74121e-015 -90 -90   XYZ
    dof ry
    limits (-180.0 0.0)
  end
  begin
     id 28
     name rhand
     direction -1 -4.49013e-011 -1.46301e-026   
     length 0.419368   
     axis 9.33524e-015 -90 -90   XYZ
    dof rx rz
    limits (-90.0 90.0)
           (-45.0 45.0)
  end
  begin
     id 29
     name rfingers
     direction -1 -4.489e-011 -2.92602e-026   
     length 0.338105   
     axis 1.86705e-014 -90 -90   XYZ
    dof rx
    limits (0.0 90.0)
  end
  begin
     id 30
     name rthumb
     direction -0.707107 -6.35022e-011 0.707107   
     length 0.485453   
     axis -90 -45 -2.85299e-015   XYZ
    dof rx rz
    limits (-45.0 45.0)
           (-45.0 45.0)
  end
:hierarchy
  begin
    root lhipjoint rhipjoint lowerback
    lhipjoint lfemur
    lfemur ltibia
    ltibia lfoot
    lfoot ltoes
    rhipjoint rfemur
    rfemur rtibia
    rtibia rfoot
    rfoot rtoes
    lowerback upperback
    upperback thorax
    thorax lowerneck lclavicle rclavicle
    lowerneck upperneck
    upperneck head
    lclavicle lhumerus
    lhumerus lradius
    lradius lwrist
    lwrist lhand lthumb
    lhand lfingers
    rclavicle rhumerus
    rhumerus rradius
    rradius rwrist
    rwrist rhand rthumb
    rhand rfingers
  end

#!OML:ASF H:\Swim 2\Project 1\Capture day 1\Session 1\male.ASF
:FULLY-SPECIFIED
:DEGREES
1332
root 2.25429 14.92 11.0782 74.5807 -84.4249 32.5063
lowerback -21.7594 3.31293 6.18861
upperback -15.0583 2.3011 -5.57391
thorax -4.04807 -0.153733 -9.18907
lowerneck -18.5316 -0.149001 -5.31235
upperneck 34.1507 -2.49904 8.79892
head 15.2177 -0.738908 4.14544
rclavicle -3.45885e-014 -8.64713e-014
rhumerus 66.6641 -18.3455 -8.87408
rradius 33.5733
rwrist -40.4526
rhand 40.7887 -7.78798
rfingers 7.12502
rthumb 63.0457 -17.916
lclavicle -3.45885e-014 -8.64713e-014
lhumerus 77.8407 19.9178 -6.18157
lradius 36.6082
lwrist 45.0692
lhand 21.4391 -6.43452
lfingers 7.12502
lthumb 45.8732 16.7126
rfemur -40.6759 -5.95965 28.8326
rtibia 73.7783
rfoot 36.7846 -3.31296
rtoes 37.1483
lfemur -44.5538 9.81475 -20.0446
ltibia 83.2456
lfoot 30.7764 -2.04694
ltoes 20.9418
1333
root 2.29625 14.9483 11.0627 72.9042 -84.4913 34.0999
lowerback -21.4328 3.14526 6.11128
upperback -14.6699 2.15208 -5.54932
thorax -3.79199 -0.170104 -9.14063
lowerneck -18.0515 -0.0508991 -5.42405
upperneck 34.6392 -2.50281 8.99093
head 15.3417 -0.752454 4.26615
rclavicle 5.56597e-015 5.42682e-014
rhumerus 68.3135 -16.7141 -10.4868
rradius 33.529
rwrist -40.1736
rhand 40.2996 -9.02364
rfingers 7.12502
rthumb 62.6431 -19.6931
lclavicle 5.56597e-015 5.42682e-014
lhumerus 79.4087 18.372 -4.37532
lradius 37.4711
lwrist 47.087
lhand 21.8512 -5.11682
lfingers 7.12502
lthumb 46.2555 17.8706
rfemur -41.1295 -5.251 28.6758
rtibia 71.476
rfoot 36.9946 -2.76079
rtoes 36.9527
lfemur -45.1445 9.30707 -20.3006
ltibia 81.3138
lfoot 30.6666 -2.31414
ltoes 20.2215
1334
root 2.33769 14.9753 11.0482 71.4519 -84.5866 35.4993
lowerback -21.1125 2.98894 6.02432
upperback -14.2936 2.01682 -5.54155
thorax -3.54635 -0.182403 -9.10275
lowerneck -17.6264 0.0685884 -5.41754
upperneck 35.0882 -2.46597 9.06883
head 15.4536 -0.746593 4.32277
rclavicle 3.77691e-014 8.7664e-014
rhumerus 69.635 -15.2101 -11.9645
rradius 33.4706
rwrist -39.9398
rhand 38.8815 -10.2202
rfingers 7.12502
rthumb 61.4617 -22.3686
lclavicle 3.77691e-014 8.7664e-014
lhumerus 80.6795 16.801 -2.9442
lradius 38.1064
lwrist 48.7067
lhand 22.2652 -3.0811
lfingers 7.12502
lthumb 46.6392 19.7425
rfemur -41.6396 -4.46977 28.4386
rtibia 69.0651
rfoot 37.2602 -2.05804
rtoes 36.5973
lfemur -45.7615 8.78156 -20.5689
ltibia 79.2898
lfoot 30.4822 -2.50105
ltoes 19.6201
1335
root 2.37874 14.9998 11.0351 70.2318 -84.7036 36.6855
lowerback -20.7984 2.85109 5.92288
upperback -13.9296 1.90656 -5.54873
thorax -3.30895 -0.183785 -9.06827
lowerneck -17.2561 0.198838 -5.283
upperneck 35.5151 -2.40774 9.03263
head 15.5639 -0.727544 4.31016
rclavicle 1.19271e-014 1.87255e-013
rhumerus 70.6845 -13.8719 -13.4998
rradius 33.368
rwrist -39.706
rhand 36.6019 -11.0565
rfingers 7.12502
rthumb 59.5237 -25.3273
lclavicle 1.19271e-014 1.87255e-013
lhumerus 81.6834 15.2403 -1.88533
lradius 38.4749
lwrist 49.6713
lhand 22.2256 -0.806572
lfingers 7.12502
lthumb 46.6025 22.0328
rfemur -42.1773 -3.62983 28.1247
rtibia 66.5472
rfoot 37.5756 -1.29356
rtoes 36.2065
lfemur -46.3825 8.24726 -20.8374
ltibia 77.1749
lfoot 30.2343 -2.63874
ltoes 19.0225
1336
root 2.41921 15.0203 11.0229 69.7008 -84.8445 37.2035
lowerback -20.5109 2.75318 5.81384
upperback -13.584 1.84834 -5.56363
thorax -3.07087 -0.160167 -9.02788
lowerneck -16.9326 0.32534 -5.04828
upperneck 35.9414 -2.35242 8.90952
head 15.6851 -0.705632 4.24155
rclavicle -1.31198e-014 -5.06901e-014
rhumerus 71.4661 -12.6751 -15.1359
rradius 33.2567
rwrist -39.4899
rhand 33.7074 -11.4965
rfingers 7.12502
rthumb 57.0057 -28.0778
lclavicle -1.31198e-014 -5.06901e-014
lhumerus 82.4487 13.7041 -1.17721
lradius 38.6088
lwrist 49.8019
lhand 21.3636 1.28367
lfingers 7.12502
lthumb 45.8032 24.4597
rfemur -42.7277 -2.71745 27.7621
rtibia 63.9291
rfoot 37.9386 -0.578273
rtoes 35.9116
lfemur -46.9952 7.75 -21.0805
ltibia 74.9739
lfoot 29.9316 -2.73849
ltoes 18.4057
